<svg width="300" height="90" version="1.1" xmlns="http://www.w3.org/2000/svg" desc="Created with imagetracer.js version 0.2.1" ><path fill="rgb(1,0,1)" stroke="rgb(1,0,1)" stroke-width="1" opacity="0.9725490196078431" d="M 251.5 0 L 272 0.5 L 243.5 2 L 231.5 5 L 225 9.5 Q 224 15 227.5 16 L 234.5 19 L 248 21.5 L 242.5 22 L 231.5 19 L 224 15 L 223 10.5 L 224 8 L 234.5 3 L 251.5 0 Z " /><path fill="rgb(1,0,1)" stroke="rgb(1,0,1)" stroke-width="1" opacity="0.9725490196078431" d="M 273.5 1 L 280 1.5 L 273.5 2 L 273.5 1 Z " /><path fill="rgb(1,0,1)" stroke="rgb(1,0,1)" stroke-width="1" opacity="0.9725490196078431" d="M 281.5 2 Q 292.8 2.8 299 8.5 L 300 12.5 L 297.5 16 L 281.5 22 Q 276 20.5 274.5 23 L 249.5 23 L 249.5 22 L 274.5 22 L 291.5 18 L 298 13.5 Q 299 8 295.5 7 Q 290.1 3.4 281.5 3 L 281.5 2 Z " /><path fill="rgb(1,0,1)" stroke="rgb(1,0,1)" stroke-width="1" opacity="0.9725490196078431" d="M 249.5 4 L 273.5 4 L 283 6 L 282.5 10 L 279.5 6 L 277 7.5 Q 279.8 9.3 278 15.5 L 277.5 17 Q 281.3 18.3 280 14.5 L 281 14.5 L 279.5 18 Q 274.8 16.8 273.5 19 L 249.5 19 L 241 16.5 L 242.5 14 Q 237.7 15.7 239 11.5 L 239 9.5 L 239.5 8 L 241 11 Q 244.7 12.2 243 7 L 241 6.5 L 249.5 4 Z M 246 6 L 244 8 L 245 16 Q 246 18 250 17 L 251 16 L 252 6 L 249 8 Q 251 9 250 14 Q 249 17 247 14 Q 246 9 248 8 L 246 6 Z M 256 6 L 253 10 L 254 12 Q 253 14 256 13 L 257 15 L 254 13 L 253 16 Q 254 18 258 17 Q 261 17 260 13 L 256 10 Q 255 7 258 8 L 259 10 L 259 7 L 256 6 Z M 263 6 L 261 10 L 263 10 Q 264 14 262 16 L 262 17 L 266 17 L 265 15 L 266 9 L 268 10 L 267 7 L 266 7 L 263 6 Z M 273 6 L 271 7 Q 268 9 269 15 Q 270 18 274 17 Q 278 16 276 9 L 273 6 Z " /><path fill="rgb(1,0,1)" stroke="rgb(1,0,1)" stroke-width="1" opacity="0.9725490196078431" d="M 236.5 8 L 236 9.5 L 235.5 14 L 234 10.5 L 236.5 8 Z " /><path fill="rgb(1,0,1)" stroke="rgb(1,0,1)" stroke-width="1" opacity="0.9725490196078431" d="M 286.5 8 Q 289.5 8.5 289 12.5 L 286 14.5 L 286.5 8 Z " /><path fill="rgb(1,0,1)" stroke="rgb(1,0,1)" stroke-width="1" opacity="0.9725490196078431" d="M 271 9 Q 273.7 7.9 273 10.5 L 274 13.5 L 272 14.5 L 271 9 Z " /><path fill="rgb(1,0,1)" stroke="rgb(1,0,1)" stroke-width="1" opacity="0.9725490196078431" d="M 282.5 14 L 283 16.5 L 282 16.5 L 282.5 14 Z " /><path fill="rgb(0,0,0)" stroke="rgb(0,0,0)" stroke-width="1" opacity="0" d="M 0 0 L 251 0.5 Q 233.8 1.1 224 8 L 223 12.5 L 224 15 L 231.5 19 L 242.5 22 Q 248 20.5 249.5 23 L 274.5 23 L 291.5 19 L 299 14.5 L 299.5 13 L 300 90 L 0.5 90 L 0 89.5 L 0 0 Z " /><path fill="rgb(0,0,0)" stroke="rgb(0,0,0)" stroke-width="1" opacity="0" d="M 272.5 0 L 300 0 L 300 9.5 L 299 9.5 L 297.5 7 Q 288.1 0.9 272.5 1 L 272.5 0 Z " /><path fill="rgb(180,149,243)" stroke="rgb(180,149,243)" stroke-width="1" opacity="1" d="M 251.5 1 L 280.5 2 L 291.5 5 L 298 9.5 Q 299 15 295.5 16 L 288.5 19 L 274.5 22 L 248.5 22 L 231.5 18 L 225 13.5 Q 224 8 227.5 7 L 234.5 4 L 251.5 1 Z M 250 4 L 241 7 L 243 7 Q 245 12 241 11 L 240 8 L 239 10 L 239 12 Q 238 16 243 14 L 241 17 L 250 19 L 274 19 L 280 18 L 278 17 L 278 16 Q 280 9 277 8 L 280 6 L 274 4 L 250 4 Z M 281 6 L 281 9 L 283 10 Q 285 5 281 6 Z M 287 8 L 286 15 L 289 13 Q 290 9 287 8 Z M 236 9 L 234 13 L 236 14 L 236 9 Z M 281 14 L 280 17 L 281 17 L 281 14 Z M 283 14 L 282 17 L 283 17 L 283 14 Z " /><path fill="rgb(180,149,243)" stroke="rgb(180,149,243)" stroke-width="1" opacity="1" d="M 245.5 6 L 248 7.5 Q 245.7 8.8 247 13.5 Q 248.5 16.5 250 13.5 Q 251.2 8.8 249 7.5 L 252 6 L 251 15.5 L 249.5 17 Q 245.8 17.8 245 15.5 L 244 7.5 L 245.5 6 Z " /><path fill="rgb(180,149,243)" stroke="rgb(180,149,243)" stroke-width="1" opacity="1" d="M 255.5 6 L 259 7 L 258 10.5 L 260 14.5 Q 259.3 17.8 254.5 17 L 253 13.5 L 254 11.5 L 253 9.5 L 255.5 6 Z M 256 8 Q 255 11 258 10 Q 259 7 256 8 Z M 255 13 L 256 15 L 257 15 L 255 13 Z " /><path fill="rgb(180,149,243)" stroke="rgb(180,149,243)" stroke-width="1" opacity="1" d="M 262.5 6 L 265.5 7 L 267 6.5 L 268 10 L 265.5 9 L 265 14.5 L 266 17 L 262 17 L 262 15.5 Q 264.3 14.2 263 9.5 L 261 9.5 L 262.5 6 Z " /><path fill="rgb(180,149,243)" stroke="rgb(180,149,243)" stroke-width="1" opacity="1" d="M 272.5 6 L 276 8.5 Q 277.5 15.5 273.5 17 Q 269.5 17.5 269 14.5 Q 267.5 8.5 270.5 7 L 272.5 6 Z M 271 9 L 272 15 L 274 14 L 273 11 Q 274 8 271 9 Z " /></svg>